<?xml version="1.0" encoding="UTF-8"?>
<svg xmlns="http://www.w3.org/2000/svg" xmlns:xlink="http://www.w3.org/1999/xlink" width="75px" height="56px" viewBox="0 0 75 56" version="1.1">
  <title>ANBI Copy</title>
  <g id="Page-1" stroke="none" stroke-width="1" fill="none" fill-rule="evenodd">
    <g id="ANBI-Copy" fill-rule="nonzero">
      <path d="M75,53.8557531 C75,55.0349547 74.0194883,56 72.8189901,56 L2.18158131,56 C0.981083058,56 0,55.0349547 0,53.8557531 L0,2.1442469 C0,0.965045287 0.981083058,0 2.18158131,0 L72.8184187,0 C74.0194883,0 75,0.965045287 75,2.1442469 L75,53.8557531 L75,53.8557531 Z" id="Path" fill="#004990"></path>
      <g id="Group" transform="translate(9.335172, 25.918282)" fill="#FFFFFF">
        <path d="M11.9913021,13.8895673 L4.54162074,13.8895673 L3.46605885,17.1888628 L0,17.1888628 L5.74279964,0 L10.663967,0 L16.4951838,17.1893995 L13.0916639,17.1893995 L11.9913021,13.8895673 L11.9913021,13.8895673 Z M11.233287,11.485005 L8.24759189,2.53123113 L5.31311401,11.485005 L11.233287,11.485005 Z M34.0152514,0 L34.0152514,17.1893995 L28.4616859,17.1893995 L23.5286577,7.75739685 C23.2833541,7.28721905 22.9011118,6.46440792 22.3781569,5.28896344 L21.8212369,4.0550151 L21.277256,2.82106676 L21.1510998,2.82106676 L21.2006997,3.95464609 L21.2395169,5.07534384 L21.2643169,7.32962093 L21.2643169,17.190473 L17.9880313,17.190473 L17.9880313,0 L23.5415968,0 L28.0314612,8.71439114 C28.5049736,9.64375205 28.964899,10.5799126 29.4110917,11.5225763 L30.0682896,12.9207648 L30.7260267,14.3307615 L30.840322,14.3307615 L30.8015048,13.2224086 L30.7637658,12.1145924 L30.739505,9.89788662 L30.739505,0 L34.0152514,0 L34.0152514,0 Z M37.0510854,17.1893995 L37.0510854,0 L45.5380505,0 C47.5279748,0 48.8838836,0.316672258 49.6057771,0.950553506 C50.3260531,1.58443475 50.6878085,2.77866488 50.6878085,4.53324388 C50.6878085,6.65763167 49.8392198,7.90821872 48.144199,8.2860785 L48.144199,8.34941295 C50.1179494,8.65159343 51.1040159,10.0159678 51.1040159,12.4419993 C51.1040159,14.1965783 50.7250084,15.4267695 49.965376,16.1320362 C49.2068218,16.8373029 47.8832607,17.1899363 45.9946926,17.1899363 L37.0510854,17.1899363 L37.0510854,17.1893995 Z M40.327371,7.21529688 L44.3374107,7.21529688 C45.6367111,7.21529688 46.4642737,7.072526 46.8227944,6.78752097 C47.181315,6.5019792 47.3608449,5.84287152 47.3608449,4.80966119 C47.3608449,3.4334787 46.5764125,2.74485072 45.0080869,2.74485072 L40.327371,2.74485072 L40.327371,7.21529688 Z M40.327371,14.4440121 L43.9201251,14.4440121 L45.0706259,14.4193224 C46.1758398,14.4193224 46.9031246,14.2642066 47.2535582,13.9534384 C47.6023746,13.643207 47.7781305,12.9883932 47.7781305,11.988997 C47.7781305,10.9482724 47.5942876,10.2929218 47.2276801,10.0245555 C46.8610725,9.7561892 45.9574927,9.62200604 44.5147841,9.62200604 L40.3279101,9.62200604 L40.3279101,14.4440121 L40.327371,14.4440121 Z M56.7589376,0 L56.7589376,17.1893995 L53.482652,17.1893995 L53.482652,0 L56.7589376,0 Z" id="Shape"></path>
      </g>
      <g id="Group" transform="translate(15.823587, 9.498558)" fill="#FFFFFF">
        <path d="M15.4676044,0.303253942 C15.5878301,0.909761825 16.1970456,3.79147937 16.3593233,4.3625629 C16.2806105,4.35129151 16.1911152,4.33948339 16.0822111,4.33948339 C15.9733071,4.33948339 15.889203,4.35129151 15.8110294,4.3625629 C15.7695165,3.94283797 15.6061604,3.08567595 15.5398476,2.78778933 C15.4196219,2.78242201 15.0751186,2.77061389 14.7381631,2.77061389 C14.4734509,2.77061389 14.2076604,2.78242201 13.9429482,2.78778933 C13.7251402,3.10285139 13.1892462,3.98362965 12.9962381,4.3625629 C12.9412469,4.35129151 12.8873341,4.33948339 12.80323,4.33948339 C12.7358389,4.33948339 12.6646739,4.35129151 12.5735611,4.3625629 C13.2710484,3.37564065 13.9561545,2.38010321 14.62872,1.37618249 C14.9306321,0.927474002 15.1408923,0.635491446 15.3527699,0.303253942 L15.4676044,0.303253942 L15.4676044,0.303253942 Z M15.1608401,1.01442469 L15.1414314,1.01442469 L14.092826,2.56021469 C14.5587108,2.58303927 15.0254412,2.58303927 15.491326,2.56021469 L15.1608401,1.01442469 L15.1608401,1.01442469 Z M17.3971462,4.3625629 C17.2360626,4.33091287 17.0703183,4.33091287 16.9092347,4.3625629 C17.3006422,2.95686011 17.7292495,0.851257967 17.8559448,0 C17.9217185,0.0112713854 17.9821009,0.0230795035 18.0845354,0.0230795035 C18.175109,0.0230795035 18.2770044,0.0112713854 18.3627258,0 C18.2721522,0.309158001 17.5540327,3.36531365 17.3971462,4.3625629 L17.3971462,4.3625629 Z M19.0263933,3.30090574 C18.9298893,3.26011406 18.5923947,3.12002684 18.5923947,2.64770211 C18.5923947,2.09969809 19.050115,1.54525327 19.9121819,1.54525327 C20.1105813,1.54525327 20.1946854,1.56833277 20.3699022,1.61502851 C20.4788062,1.64454881 20.5510495,1.64454881 20.6782839,1.64454881 C20.8227704,1.64454881 21.1176738,1.62683663 21.2745603,1.62093257 C21.2745603,1.65582019 21.2621603,1.69714861 21.2621603,1.74384435 C21.2621603,1.79054009 21.2745603,1.8318685 21.2745603,1.86675612 C21.0836384,1.85505828 20.8925962,1.84539654 20.7014664,1.83777256 C20.7677793,1.91935592 20.8707529,2.05353908 20.8707529,2.31600134 C20.8707529,2.64233479 20.6960751,3.05078833 20.2911894,3.26655485 C20.008686,3.41845018 19.6706522,3.42972157 19.4776441,3.42972157 C19.3455576,3.42972157 19.2188623,3.42381751 19.1282887,3.41845018 C19.0619758,3.45924187 18.8813677,3.55800067 18.8813677,3.73887957 C18.8813677,3.97235827 19.13368,3.97826233 19.3261489,3.97826233 C20.0081468,3.98362965 20.2248766,3.98362965 20.4480759,4.11244549 C20.6712752,4.24072459 20.7133273,4.47420329 20.7133273,4.61965783 C20.7133273,5.06890305 20.3154502,5.8852734 19.1584799,5.8852734 C18.8748982,5.8852734 18.597786,5.83857766 18.3988475,5.68131499 C18.226993,5.54786371 18.124782,5.34435022 18.120657,5.12740691 C18.120657,4.85313653 18.2899435,4.59657833 18.5190732,4.45649111 C18.6180598,4.39633339 18.7234835,4.34736632 18.8333852,4.31049983 L18.8387765,4.26970815 C18.7482029,4.24662865 18.5072123,4.17631667 18.5072123,3.93210332 C18.5072123,3.57034552 18.844707,3.42435424 19.0263933,3.34277088 L19.0263933,3.30090574 L19.0263933,3.30090574 Z M19.2247927,5.70976182 C19.9483035,5.70976182 20.3035894,5.2143576 20.3035894,4.8 C20.3035894,4.34538745 19.8092083,4.32767528 19.4835745,4.32767528 C19.3261489,4.32767528 19.0317846,4.33948339 18.8209853,4.47366655 C18.5250036,4.66044951 18.4834907,4.95243207 18.4834907,5.09788662 C18.4834907,5.53478698 18.8387765,5.70976182 19.2247927,5.70976182 Z M19.6102698,3.26011406 C20.1946854,3.26011406 20.4119543,2.62408588 20.4119543,2.26823214 C20.4119543,1.93009057 20.2070854,1.71432405 19.8814516,1.71432405 C19.2727752,1.71432405 19.0560454,2.33854411 19.0560454,2.67668568 C19.0565846,3.12002684 19.3568793,3.26011406 19.6102698,3.26011406 Z M23.5965879,4.1586045 C23.2969747,4.32730922 22.9585099,4.41571049 22.6142953,4.41516523 C22.0951143,4.41516523 21.4141947,4.14089232 21.4141947,3.21341832 C21.4141947,2.29828916 22.0412014,1.55169406 22.9631116,1.55169406 C23.5356664,1.55169406 24.0429865,1.80181147 24.0429865,2.50761489 C24.0429865,2.72338142 24.0003954,2.88118081 23.9755954,2.98047635 C23.5302751,2.95739685 23.3609886,2.95149279 22.6434083,2.95149279 C22.4148177,2.95149279 22.1005056,2.95739685 21.9145062,2.96276417 C21.8946951,3.07440413 21.8845939,3.18753732 21.8843149,3.30090574 C21.8843149,4.05930896 22.4207481,4.20530023 22.7587818,4.20530023 C23.2229717,4.20530023 23.5184142,3.99490104 23.6569703,3.89614223 L23.6747616,3.89614223 L23.5965879,4.1586045 L23.5965879,4.1586045 Z M21.9565582,2.72982221 C22.2040183,2.74699765 22.5296521,2.75290171 22.7771122,2.75290171 C23.0116332,2.75290171 23.3555974,2.75290171 23.5787967,2.72982221 C23.5965879,2.66004696 23.6143792,2.56611875 23.6143792,2.41476015 C23.6143792,1.89573968 23.2768846,1.72076379 22.9631116,1.72076379 C22.638017,1.72022811 22.1377055,1.92472325 21.9565582,2.72982221 Z M25.3153304,2.0358269 L25.3271913,2.0358269 C25.4652082,1.89573968 25.7735899,1.56886951 26.3164925,1.56886951 C26.8949777,1.56886951 27.0022643,1.93009057 27.0577946,2.13458571 C27.2443332,1.90701107 27.5581061,1.56886951 28.1117913,1.56886951 C28.6369028,1.56886951 28.8956846,1.89520295 28.8956846,2.18664878 C28.8956846,2.30956055 28.8541717,2.50761489 28.8056501,2.72928547 L28.5759812,3.79094264 C28.503738,4.12318014 28.4918771,4.26917142 28.4794772,4.36202617 C28.4021198,4.34760362 28.3236527,4.33988157 28.2449562,4.33894666 C28.1538434,4.33894666 28.0632698,4.35075478 27.9850961,4.36202617 C28.0875306,4.0764844 28.4557555,2.66487756 28.4557555,2.35571956 C28.4557555,2.02884938 28.2266258,1.84206642 27.9069224,1.84206642 C27.5990799,1.84206642 27.189342,2.02884938 27.0448555,2.50654143 C26.9483515,2.82160349 26.7305434,3.91278095 26.6593784,4.36148943 C26.5837131,4.3479318 26.5071084,4.34021566 26.4302487,4.33840993 C26.3396751,4.33840993 26.2491015,4.35021805 26.1709278,4.36148943 C26.3040926,3.95893995 26.6291872,2.66434083 26.6291872,2.30848708 C26.6291872,1.96444146 26.3342838,1.84206642 26.0932932,1.84206642 C25.9595893,1.84206642 25.4420257,1.8828581 25.2306872,2.51834955 C25.1341832,2.80979537 24.899123,4.00563569 24.8559927,4.36148943 C24.7764682,4.34698584 24.6958455,4.33926466 24.6150022,4.33840993 C24.5308981,4.33840993 24.4397853,4.35021805 24.3740116,4.36148943 C24.5734892,3.69057363 24.8931926,2.24407917 24.9772967,1.59731634 C25.0252791,1.60858772 25.1158528,1.61985911 25.188096,1.61985911 C25.2722001,1.61985911 25.3573825,1.60858772 25.435017,1.59731634 L25.3153304,2.0358269 L25.3153304,2.0358269 Z M31.6349978,4.1586045 C31.3355343,4.32719649 30.9972732,4.41559309 30.6532444,4.41516426 C30.1335242,4.41516426 29.4531437,4.14089232 29.4531437,3.21341832 C29.4531437,2.29828916 30.0796113,1.55169406 31.0015215,1.55169406 C31.5740763,1.55169406 32.0813965,1.80181147 32.0813965,2.50761489 C32.0813965,2.72338142 32.0388053,2.88118081 32.0140054,2.98047635 C31.568685,2.95739685 31.3993986,2.95149279 30.6818182,2.95149279 C30.4532276,2.95149279 30.1399938,2.95739685 29.9529161,2.96276417 C29.9405161,3.03844348 29.9221857,3.14954713 29.9221857,3.30090574 C29.9221857,4.05930896 30.459158,4.20530023 30.7966526,4.20530023 C31.2608425,4.20530023 31.5557459,3.99490104 31.6948411,3.89614223 L31.7126324,3.89614223 L31.6349978,4.1586045 Z M29.9955073,2.72982221 C30.2424282,2.74699765 30.568062,2.75290171 30.8155221,2.75290171 C31.0500431,2.75290171 31.3940073,2.75290171 31.6166675,2.72982221 C31.6344587,2.66004696 31.65225,2.56611875 31.65225,2.41476015 C31.65225,1.89573968 31.3147554,1.72076379 31.0009824,1.72076379 C30.6764269,1.72022811 30.1766545,1.92472325 29.9955073,2.72982221 L29.9955073,2.72982221 Z M34.6498059,4.1586045 C34.3502208,4.32737803 34.0117374,4.41578416 33.6675133,4.41516595 C33.1483323,4.41516595 32.4674127,4.14089232 32.4674127,3.21341832 C32.4674127,2.29828916 33.0944194,1.55169406 34.0163296,1.55169406 C34.5888844,1.55169406 35.0962045,1.80181147 35.0962045,2.50761489 C35.0962045,2.72338142 35.0530742,2.88118081 35.0293526,2.98047635 C34.5840322,2.95739685 34.4142066,2.95149279 33.6971654,2.95149279 C33.4674965,2.95149279 33.1548018,2.95739685 32.9677242,2.96276417 C32.9553242,3.03844348 32.9369938,3.14954713 32.9369938,3.30090574 C32.9369938,4.05930896 33.4739661,4.20530023 33.8114607,4.20530023 C34.2751114,4.20530023 34.570554,3.99490104 34.7096492,3.89614223 L34.7274405,3.89614223 L34.6498059,4.1586045 L34.6498059,4.1586045 Z M33.0103153,2.72982221 C33.2833413,2.74610973 33.556816,2.75380674 33.8303302,2.75290171 C34.0648512,2.75290171 34.4088154,2.75290171 34.6320147,2.72982221 C34.6498059,2.66004696 34.6675972,2.56611875 34.6675972,2.41476015 C34.6675972,1.89573968 34.3301026,1.72076379 34.0163296,1.72076379 C33.691235,1.72022811 33.1909235,1.92472325 33.0103153,2.72982221 L33.0103153,2.72982221 Z M36.3938875,2.02992284 L36.4181483,2.04119423 C36.5863564,1.83723583 36.9545814,1.56886951 37.4128408,1.56886951 C37.8398308,1.56886951 38.2565774,1.80181147 38.2565774,2.26876887 C38.2565774,2.42066421 38.2436383,2.47916806 38.1180213,3.00355585 C38.0511693,3.27782623 37.870022,4.11781281 37.8463004,4.3625629 C37.7705517,4.34831903 37.6937114,4.34059732 37.6166315,4.33948339 C37.5271361,4.33948339 37.4241626,4.35129151 37.3519193,4.3625629 C37.4430321,4.10010064 37.8037092,2.7641731 37.8037092,2.36216035 C37.8037092,2.01221067 37.5088058,1.84313989 37.2074328,1.84313989 C37.0084943,1.84313989 36.5151915,1.93599463 36.3335051,2.46735995 C36.194949,2.86990943 35.9474889,4.17631667 35.9172976,4.36309963 C35.8437772,4.34853584 35.7690558,4.34080942 35.6940983,4.34002013 C35.6105334,4.34002013 35.5199597,4.35182825 35.4531078,4.36309963 C35.6164638,3.82636699 35.9836105,2.07071453 36.0623233,1.59892653 C36.1227057,1.61019792 36.1954881,1.62146931 36.2795922,1.62146931 C36.3518354,1.62146931 36.4364787,1.61019792 36.5087219,1.59892653 L36.3938875,2.02992284 L36.3938875,2.02992284 Z M41.6396104,0.31506206 C41.9889658,0.921569943 43.6473259,3.25474673 43.9427685,3.58698423 C44.0441247,3.21985911 44.4484713,1.34129487 44.5627666,0.367125126 C44.6172186,0.378396511 44.7013227,0.390204629 44.774105,0.390204629 C44.8517396,0.390204629 44.8948699,0.378396511 44.9552523,0.367125126 C44.732053,1.11372023 44.1109767,3.88433412 44.0446638,4.42643408 L43.9605597,4.42643408 C43.7734821,4.1060047 41.9054009,1.48084535 41.6579408,1.17759141 C41.483263,1.86568266 41.0670556,3.82529353 41.0250036,4.36202617 C40.9576318,4.34770975 40.8890163,4.33997987 40.8201347,4.33894666 C40.7538218,4.33894666 40.6691786,4.35075478 40.6093353,4.36202617 C40.8864475,3.56283126 41.4767935,0.833009057 41.566828,0.313988594 L41.6396104,0.313988594 L41.6396104,0.31506206 Z M47.235767,3.96591748 L47.2115062,3.94283797 C47.0184981,4.16504529 46.6810035,4.42697082 46.1860833,4.42697082 C45.7887454,4.42697082 45.3423468,4.18758806 45.3423468,3.75605502 C45.3423468,3.61006374 45.4210596,3.3068098 45.5294245,2.83448507 C45.577946,2.63052667 45.7105717,2.01811473 45.7655629,1.5983898 C45.8378061,1.60966119 45.9283797,1.62093257 46.0297359,1.62093257 C46.1278574,1.62093257 46.2114223,1.60966119 46.2901351,1.5983898 C46.1273183,2.18128145 45.8189366,3.26601811 45.8189366,3.58698423 C45.8189366,3.94874203 46.0362055,4.14679638 46.4044304,4.14679638 C46.8680812,4.14679638 47.181315,3.82583026 47.302619,3.47051325 C47.4524968,3.03307615 47.6816265,1.7035894 47.6999569,1.5983898 C47.7846001,1.60966119 47.8633129,1.62093257 47.9404083,1.62093257 C48.0315211,1.62093257 48.115086,1.60966119 48.1884075,1.5983898 C48.0671036,1.9832271 47.6579048,3.65675948 47.579192,4.3625629 C47.5064096,4.35129151 47.4400968,4.33948339 47.3619231,4.33948339 C47.2724278,4.33948339 47.193715,4.35129151 47.1274021,4.3625629 L47.235767,3.96591748 L47.235767,3.96591748 Z M49.7804548,0.868970144 C49.7022811,1.13733646 49.6418987,1.40570278 49.5815163,1.6740691 C49.7691331,1.6740691 49.9977237,1.65635693 50.208523,1.6509896 C50.1850808,1.72846363 50.1730943,1.80892293 50.1729405,1.88983563 C49.9621412,1.88393157 49.7141419,1.86675612 49.5329947,1.86675612 L49.2979345,2.96330091 C49.2440217,3.21395505 49.1599176,3.59342503 49.1599176,3.77967125 C49.1599176,4.08882925 49.4116907,4.20530023 49.5869076,4.20530023 C49.7260028,4.20530023 49.865098,4.1586045 49.9853237,4.08882925 L49.974002,4.24018786 C49.8101069,4.36309963 49.5583337,4.42106676 49.358317,4.42106676 C49.0456223,4.42106676 48.713519,4.2342838 48.713519,3.87306273 C48.713519,3.72116739 48.7561101,3.54672929 48.797623,3.35350554 C48.9717616,2.55431063 49.002492,2.46735995 49.1232568,1.86621939 C49.0084224,1.86621939 48.8585446,1.87212345 48.7259189,1.87749077 C48.7496406,1.81308286 48.7615014,1.76638712 48.7615014,1.65045287 C48.8887358,1.65582019 49.0456223,1.67353237 49.1475176,1.67353237 L49.2564216,1.05521637 L49.7804548,0.868970144 Z M1.98938515,8.76055015 C2.68809604,8.82442134 2.8935041,9.24468299 2.8935041,9.54793693 C2.8935041,9.97356592 2.61100062,10.4346193 2.11608041,10.674002 C1.71820338,10.866689 1.25401351,10.8838645 1.0308142,10.8838645 C0.910588489,10.8838645 0.380085781,10.860785 0.27118177,10.860785 C0.156886471,10.860785 0.0787128001,10.8725931 0,10.8838645 C0.307303398,9.75833613 0.705180428,7.91519624 0.873388604,6.88896344 C0.958570949,6.89486749 1.0906575,6.91204294 1.19309196,6.91204294 C1.42222169,6.91204294 1.69933388,6.88896344 1.97644606,6.88896344 C2.30854938,6.88896344 2.53767911,6.92975512 2.71774812,7.0231466 C2.99593856,7.16860114 3.09244261,7.4310634 3.09244261,7.62428715 C3.09244261,8.2071788 2.48915752,8.63334452 2.00124599,8.7202952 L1.98938515,8.76055015 Z M1.67022092,8.87165381 C1.53234468,8.85460817 1.39348161,8.84671865 1.25455264,8.84803757 C1.14564863,8.84803757 1.01895337,8.84803757 0.917058034,8.85394163 C0.784079482,9.45021653 0.663468698,10.0491586 0.555302631,10.6503858 C0.706258686,10.6793693 0.850745196,10.6793693 0.941857958,10.6793693 C1.14079647,10.6793693 1.45349116,10.6616572 1.71335122,10.5569943 C2.08642833,10.405099 2.39427086,9.97946998 2.39427086,9.55384099 C2.3931926,9.13948339 2.06809795,8.92371687 1.67022092,8.87165381 L1.67022092,8.87165381 Z M1.88102027,7.08111372 C1.70041213,7.08111372 1.51279532,7.08648105 1.33272631,7.10419322 C1.12731825,7.92056357 1.05561413,8.22381751 0.964501366,8.64998323 C1.055075,8.66125461 1.1451095,8.66715867 1.27881344,8.66715867 C1.48961279,8.66715867 1.85082906,8.64998323 2.12201083,8.49218383 C2.45411415,8.30003355 2.60399195,7.96725931 2.60399195,7.68118081 C2.60399195,7.2501845 2.29129726,7.08111372 1.88102027,7.08111372 L1.88102027,7.08111372 Z M5.71638233,10.6793693 C5.41654954,10.8485562 5.07765555,10.9371575 4.73301145,10.9364683 C4.21490871,10.9364683 3.5345282,10.6621939 3.5345282,9.73471989 C3.5345282,8.81905401 4.16153496,8.07245891 5.08344515,8.07245891 C5.6559999,8.07245891 6.16332007,8.32311305 6.16332007,9.02891647 C6.16332007,9.24468299 6.12018977,9.40194566 6.09592898,9.50124119 C5.65060862,9.47816169 5.48132218,9.47225763 4.76374179,9.47225763 C4.5351512,9.47225763 4.22137825,9.47816169 4.0348397,9.48352902 C4.01505782,9.59517282 4.00495687,9.7083035 4.00464849,9.82167058 C4.00464849,10.5800738 4.54054248,10.7260651 4.87803709,10.7260651 C5.34222696,10.7260651 5.63820865,10.5162026 5.77676475,10.4169071 L5.79563426,10.4169071 L5.71638233,10.6793693 L5.71638233,10.6793693 Z M4.07581349,9.25058705 C4.32327359,9.2677625 4.64890737,9.27366655 4.89582834,9.27366655 C5.13142761,9.27366655 5.47539177,9.27366655 5.69859108,9.25058705 C5.71638233,9.18027508 5.73417358,9.0868836 5.73417358,8.93552499 C5.73417358,8.41650453 5.39667897,8.24152969 5.08290602,8.24152969 C4.75835051,8.24152969 4.25803901,8.44602482 4.07581349,9.25058705 Z M8.22494848,8.06655485 C9.17812814,8.06655485 9.50861408,8.61455887 9.50861408,9.20389131 C9.50861408,10.0610533 8.83955528,10.9418316 7.80281066,10.9418316 C6.80811808,10.9418316 6.54286673,10.2709158 6.54286673,9.76907078 C6.54286673,8.93552499 7.18227345,8.06655485 8.22494848,8.06655485 L8.22494848,8.06655485 Z M7.78501941,10.7555854 C8.69506877,10.7555854 9.03310251,9.67675277 9.03310251,9.09922845 C9.03310251,8.61509561 8.74952077,8.25333781 8.23033977,8.25333781 C7.35695117,8.25333781 7.01945656,9.26239517 7.01945656,9.90969473 C7.01945656,10.3997316 7.24265587,10.7555854 7.78501941,10.7555854 Z M10.529724,9.82220731 C10.4332199,9.78141563 10.0951862,9.64132841 10.0951862,9.16900369 C10.0951862,8.62099966 10.5534456,8.06709158 11.4155125,8.06709158 C11.6139119,8.06709158 11.6990943,8.09017108 11.8743111,8.13686682 C11.9821369,8.16585039 12.0543801,8.16585039 12.1810754,8.16585039 C12.326101,8.16585039 12.6204653,8.14813821 12.7778909,8.14223415 C12.7778909,8.17712177 12.765491,8.21791345 12.765491,8.26514592 C12.765491,8.31130493 12.7778909,8.35263334 12.7778909,8.38752097 C12.5869829,8.375437 12.3959383,8.36559622 12.204797,8.35800067 C12.2711099,8.43958403 12.3740835,8.57376719 12.3740835,8.83622945 C12.3740835,9.1625629 12.1994058,9.57155317 11.7955983,9.78678296 C11.5120166,9.9386783 11.174522,9.94994968 10.9815139,9.94994968 C10.8488882,9.94994968 10.7221929,9.94458235 10.6316193,9.9386783 C10.5653065,9.97946998 10.3852375,10.0787655 10.3852375,10.2596444 C10.3852375,10.4931231 10.6375497,10.4990272 10.8305578,10.4990272 C11.5125557,10.5049312 11.7298246,10.5049312 11.9519457,10.6332103 C12.175145,10.7614894 12.2177361,10.9949681 12.2177361,11.1404227 C12.2177361,11.5896679 11.81932,12.4060382 10.6623496,12.4060382 C10.379307,12.4060382 10.1011166,12.3598792 9.90271721,12.2015431 C9.73080124,12.0681419 9.62857455,11.8645972 9.62452676,11.647635 C9.62452676,11.3739014 9.7938132,11.1173432 10.0229429,10.9767192 C10.1561077,10.8951359 10.2709422,10.8543442 10.337255,10.8307279 L10.3431854,10.7899363 C10.2526118,10.7668568 10.0116212,10.6965448 10.0116212,10.4517947 C10.0116212,10.0900369 10.3491158,9.94458235 10.5302631,9.86299899 L10.5302631,9.82220731 L10.529724,9.82220731 Z M10.7281234,12.2310634 C11.4516342,12.2310634 11.80692,11.7351224 11.80692,11.3213016 C11.80692,10.866689 11.3130781,10.8489769 10.9874443,10.8489769 C10.8300187,10.8489769 10.5351153,10.860785 10.324855,10.9949681 C10.1104526,11.1300316 9.98232446,11.3666357 9.9868213,11.6191882 C9.98628217,12.0560886 10.3426463,12.2310634 10.7281234,12.2310634 L10.7281234,12.2310634 Z M11.1136004,9.7808789 C11.6990943,9.7808789 11.9152849,9.14538745 11.9152849,8.78953371 C11.9152849,8.45139215 11.7098768,8.2350889 11.3847822,8.2350889 C10.7761058,8.2350889 10.559376,8.85930896 10.559376,9.19798725 C10.5599152,9.64132841 10.8602099,9.7808789 11.1136004,9.7808789 L11.1136004,9.7808789 Z M15.0999185,10.6793693 C14.800254,10.8484891 14.4615514,10.937089 14.1170868,10.9364676 C13.5984449,10.9364676 12.9175253,10.6621939 12.9175253,9.73471989 C12.9175253,8.81905401 13.544532,8.07245891 14.4664422,8.07245891 C15.0395361,8.07245891 15.5463172,8.32311305 15.5463172,9.02891647 C15.5463172,9.24468299 15.503726,9.40194566 15.4800043,9.50124119 C15.0336057,9.47816169 14.8643193,9.47225763 14.1478171,9.47225763 C13.9181483,9.47225763 13.6054536,9.47816169 13.4178368,9.48352902 C13.3980549,9.59517282 13.3879539,9.7083035 13.3876456,9.82167058 C13.3876456,10.5800738 13.9246178,10.7260651 14.2621124,10.7260651 C14.7263023,10.7260651 15.0212057,10.5162026 15.1608401,10.4169071 L15.1786313,10.4169071 L15.0999185,10.6793693 L15.0999185,10.6793693 Z M13.4604279,9.25058705 C13.7334539,9.26687457 14.0069286,9.27457158 14.2804428,9.27366655 C14.5149638,9.27366655 14.858928,9.27366655 15.0821273,9.25058705 C15.1004577,9.18027508 15.1182489,9.0868836 15.1182489,8.93552499 C15.1182489,8.41650453 14.7807543,8.24152969 14.4669814,8.24152969 C14.1408085,8.24152969 13.6410361,8.44602482 13.4604279,9.25058705 L13.4604279,9.25058705 Z M16.843461,8.55015096 L16.8666435,8.56195907 C17.0359299,8.35800067 17.4036158,8.08963435 17.8613361,8.08963435 C18.2894043,8.08963435 18.7050726,8.32311305 18.7050726,8.78953371 C18.7050726,8.94142905 18.6926726,8.99993291 18.5670556,9.5243207 C18.4996645,9.79859108 18.3195955,10.6391144 18.2958739,10.8833277 C18.2201131,10.8691671 18.14328,10.8614461 18.066205,10.8602482 C17.9767096,10.8602482 17.873736,10.8720564 17.8014928,10.8833277 C17.8909882,10.6214022 18.2532827,9.28547467 18.2532827,8.88292519 C18.2532827,8.53297551 17.957301,8.363368 17.6570063,8.363368 C17.4575286,8.363368 16.9631476,8.45675948 16.7825394,8.98758806 C16.6439833,9.39013754 16.3970623,10.6965448 16.3668711,10.882791 C16.2933415,10.8682881 16.2186258,10.8605622 16.1436718,10.8597115 C16.0628492,10.8609457 15.9822581,10.8686639 15.9026813,10.882791 C16.0654982,10.3465951 16.4326448,8.5904059 16.5113576,8.11861791 C16.5717401,8.13042603 16.6439833,8.14169742 16.7286265,8.14169742 C16.8003307,8.14169742 16.8844348,8.13042603 16.9572171,8.11861791 L16.843461,8.55015096 L16.843461,8.55015096 Z M21.4977596,10.3643073 C21.2993602,10.6095941 21.0152394,10.9595438 20.4254325,10.9595438 C19.6954521,10.9595438 19.3401663,10.4228111 19.3401663,9.82167058 C19.3401663,9.0868836 19.8528777,8.07782623 20.913344,8.07782623 C21.558142,8.07782623 21.7387502,8.46856759 21.8239325,8.65535055 L21.8476542,8.65535055 C21.9921407,7.92056357 22.1619663,7.15625629 22.2633225,6.52076484 C22.3296353,6.53203623 22.4148177,6.54384435 22.504313,6.54384435 C22.5948867,6.54384435 22.6735995,6.53203623 22.7399123,6.52076484 C22.3900177,7.90285139 22.2633225,8.54478363 22.0045407,9.77497484 C21.9267033,10.1424643 21.8582121,10.5118544 21.7991326,10.882791 C21.7452197,10.8715196 21.6972373,10.8597115 21.5937245,10.8597115 C21.4918292,10.8597115 21.4309077,10.8715196 21.3651339,10.882791 L21.4977596,10.3643073 L21.4977596,10.3643073 Z M20.5515886,10.7319691 C21.461638,10.7319691 21.7209589,9.58872861 21.7209589,9.08097954 C21.7209589,8.84750084 21.6422461,8.2876887 20.9855873,8.2876887 C20.0458858,8.2876887 19.8226865,9.40731298 19.8226865,9.8565582 C19.8226865,10.4228111 20.0879379,10.7319691 20.5515886,10.7319691 Z M24.9287751,10.6793693 C24.6293922,10.8486992 24.2908058,10.9373172 23.9464825,10.9364704 C23.4283797,10.9364704 22.746921,10.6621939 22.746921,9.73471989 C22.746921,8.81905401 23.3744669,8.07245891 24.2969162,8.07245891 C24.8694709,8.07245891 25.3751737,8.32311305 25.3751737,9.02891647 C25.3751737,9.24468299 25.3336608,9.40194566 25.3094,9.50124119 C24.8630014,9.47816169 24.6947932,9.47225763 23.9772128,9.47225763 C23.7486222,9.47225763 23.4348493,9.47816169 23.2483107,9.48352902 C23.2285289,9.59517282 23.2184279,9.7083035 23.2181195,9.82167058 C23.2181195,10.5800738 23.7540135,10.7260651 24.0920473,10.7260651 C24.5562371,10.7260651 24.8511406,10.5162026 24.9902358,10.4169071 L25.0085662,10.4169071 L24.9287751,10.6793693 L24.9287751,10.6793693 Z M23.2892845,9.25058705 C23.5367446,9.2677625 23.8618393,9.27366655 24.1092994,9.27366655 C24.3448986,9.27366655 24.6877845,9.27366655 24.9109839,9.25058705 C24.9293142,9.18027508 24.9471055,9.0868836 24.9471055,8.93552499 C24.9471055,8.41650453 24.6096109,8.24152969 24.2969162,8.24152969 C23.9707433,8.24152969 23.4709709,8.44602482 23.2892845,9.25058705 L23.2892845,9.25058705 Z M28.3791992,6.8884267 C28.4649808,6.90222935 28.5516396,6.90994197 28.6385202,6.91150621 C28.7355633,6.91150621 28.8369195,6.90023482 28.9156323,6.8884267 C28.5664172,8.20723868 28.2728736,9.54004183 28.0357742,10.8833277 C27.9479224,10.8687073 27.8590514,10.8609903 27.7699837,10.8602482 C27.6799492,10.8602482 27.5775147,10.8720564 27.4988019,10.8833277 C27.8066445,9.7577994 28.2045215,7.91465951 28.3791992,6.8884267 L28.3791992,6.8884267 Z M30.0256985,8.55015096 L30.0494201,8.56195907 C30.2181674,8.35800067 30.5863924,8.08963435 31.0441127,8.08963435 C31.4727201,8.08963435 31.8883884,8.32311305 31.8883884,8.78953371 C31.8883884,8.94142905 31.8759884,8.99993291 31.7492931,9.5243207 C31.6829803,9.79859108 31.5023722,10.6391144 31.4775722,10.8833277 C31.4021794,10.8691346 31.3257016,10.8614131 31.2489816,10.8602482 C31.1578689,10.8602482 31.0559735,10.8720564 30.9831912,10.8833277 C31.0737648,10.6214022 31.4360593,9.28547467 31.4360593,8.88292519 C31.4360593,8.53297551 31.1400776,8.363368 30.8387047,8.363368 C30.6403053,8.363368 30.1459242,8.45675948 29.965316,8.98758806 C29.8262208,9.39013754 29.5792999,10.6965448 29.5496478,10.882791 C29.4892653,10.8715196 29.4105525,10.8597115 29.3264485,10.8597115 C29.2423444,10.8597115 29.1517707,10.8715196 29.0854579,10.882791 C29.2482748,10.3465951 29.6154215,8.5904059 29.6941343,8.11861791 C29.7545167,8.13042603 29.82676,8.14169742 29.9114032,8.14169742 C29.9836464,8.14169742 30.0677505,8.13042603 30.1405329,8.11861791 L30.0256985,8.55015096 L30.0256985,8.55015096 Z M34.185616,8.58557531 C34.1263119,8.36980879 33.9209038,8.24152969 33.6923132,8.24152969 C33.3424187,8.24152969 33.1192193,8.52707145 33.1192193,8.79543777 C33.1192193,9.08097954 33.3661403,9.19261993 33.6373221,9.30909091 C33.8912517,9.42019457 34.1807639,9.54793693 34.1807639,9.92740691 C34.1807639,10.4641396 33.6373221,10.9477357 32.9380721,10.9477357 C32.6911511,10.9477357 32.4986821,10.9010399 32.2873437,10.7792016 C32.3638043,10.6553273 32.4282511,10.5244904 32.4798126,10.3884602 L32.5229429,10.3884602 C32.6124383,10.6219389 32.8534289,10.7378732 33.1186802,10.7378732 C33.5769397,10.7378732 33.7758782,10.3938276 33.7758782,10.1367326 C33.7758782,9.88071117 33.6136004,9.80449514 33.2938971,9.65850386 C33.0351153,9.54203287 32.7445248,9.40784971 32.7445248,8.98758806 C32.7445248,8.59094264 33.0405065,8.04830594 33.8475823,8.04830594 C34.0648512,8.04830594 34.2039464,8.08319356 34.3974937,8.16531365 C34.2756505,8.42777591 34.2578593,8.50935928 34.2406072,8.58503858 L34.185616,8.58503858 L34.185616,8.58557531 Z M36.0380625,7.38973499 C35.9593497,7.65810131 35.8989673,7.92646763 35.8385848,8.19483395 C36.0256625,8.19483395 36.2542531,8.17712177 36.4650525,8.17175444 C36.4416109,8.24941239 36.429625,8.33004858 36.42947,8.4111372 C36.2186706,8.40469641 35.9717497,8.3880577 35.7906024,8.3880577 L35.5555422,9.48406575 C35.5005511,9.73525663 35.416447,10.1141899 35.416447,10.3009728 C35.416447,10.6101308 35.6698375,10.7266018 35.8445153,10.7266018 C35.9830714,10.7266018 36.1221666,10.6799061 36.2418532,10.6101308 L36.2305315,10.7614894 C36.0682537,10.8838645 35.8148632,10.9423683 35.6153855,10.9423683 C35.3021517,10.9423683 34.9705875,10.7555854 34.9705875,10.3938276 C34.9705875,10.242469 35.0126396,10.0674941 35.0541525,9.87480711 C35.2293693,9.07561221 35.2595606,8.98812479 35.3803254,8.38752097 C35.2660301,8.38752097 35.115074,8.39342503 34.9824484,8.39879235 C35.0056309,8.33492117 35.01857,8.2876887 35.01857,8.17121771 C35.1447261,8.17712177 35.3016126,8.19429722 35.4040471,8.19429722 L35.5124119,7.57598121 L36.0380625,7.38973499 L36.0380625,7.38973499 Z M38.7811497,10.6793693 C38.4816817,10.8484912 38.1431517,10.9370945 37.798857,10.9364676 C37.2802152,10.9364676 36.5987564,10.6621939 36.5987564,9.73471989 C36.5987564,8.81905401 37.2257632,8.07245891 38.1487516,8.07245891 C38.7213064,8.07245891 39.2270092,8.32311305 39.2270092,9.02891647 C39.2270092,9.24468299 39.1849571,9.40194566 39.1612354,9.50124119 C38.7148368,9.47816169 38.5460895,9.47225763 37.8290483,9.47225763 C37.5983011,9.47225763 37.2861456,9.47816169 37.0985288,9.48352902 C37.0877462,9.55974505 37.0688767,9.67031198 37.0688767,9.82167058 C37.0688767,10.5800738 37.6053098,10.7260651 37.9433436,10.7260651 C38.4069943,10.7260651 38.7018977,10.5162026 38.8415321,10.4169071 L38.8593233,10.4169071 L38.7811497,10.6793693 L38.7811497,10.6793693 Z M37.1416591,9.25058705 C37.4145055,9.26686684 37.6878003,9.27456385 37.9611348,9.27366655 C38.1972732,9.27366655 38.5401591,9.27366655 38.7628193,9.25058705 C38.7811497,9.18027508 38.7989409,9.0868836 38.7989409,8.93552499 C38.7989409,8.41650453 38.4609072,8.24152969 38.1487516,8.24152969 C37.8220396,8.24152969 37.3217281,8.44602482 37.1416591,9.25058705 L37.1416591,9.25058705 Z M40.0658935,10.8833277 C39.9045863,10.8521108 39.73875,10.8521108 39.5774429,10.8833277 C39.9704677,9.47762496 40.3974577,7.37255954 40.524153,6.52076484 C40.5899267,6.53203623 40.6503091,6.54384435 40.7532827,6.54384435 C40.8438563,6.54384435 40.9457517,6.53203623 41.0314731,6.52076484 C40.9398212,6.82992284 40.2222409,9.88661523 40.0658935,10.8833277 Z M41.5199238,10.8833277 C41.3586166,10.8521108 41.1927803,10.8521108 41.0314731,10.8833277 C41.4239589,9.47762496 41.8509489,7.37255954 41.9776441,6.52076484 C42.043957,6.53203623 42.1043394,6.54384435 42.2062347,6.54384435 C42.2973475,6.54384435 42.4003211,6.53203623 42.4849643,6.52076484 C42.3938515,6.82992284 41.6762711,9.88661523 41.5199238,10.8833277 L41.5199238,10.8833277 Z M42.9906671,10.8833277 C42.8988445,10.8701121 42.8063068,10.862405 42.7135549,10.8602482 C42.6170508,10.8602482 42.5388772,10.8720564 42.4779556,10.8833277 C42.7421287,10.055686 43.0688408,8.34028849 43.099032,8.11915465 C43.1885273,8.13096276 43.2672401,8.14223415 43.3524225,8.14223415 C43.442457,8.14223415 43.5271002,8.13096276 43.5993435,8.11915465 C43.4850482,8.50399195 43.0693799,10.1898692 42.9906671,10.8833277 L42.9906671,10.8833277 Z M43.5572914,6.91741027 C43.7211866,6.91741027 43.8462644,7.04568937 43.8462644,7.1975847 C43.8454143,7.27288793 43.8144364,7.34474488 43.7601943,7.3972347 C43.7059522,7.44972451 43.6329245,7.47851326 43.5572914,7.47722241 C43.4001009,7.47901652 43.2709775,7.35406447 43.2683184,7.1975847 C43.2683184,7.04568937 43.3944745,6.91741027 43.5572914,6.91741027 Z M44.8851656,8.55015096 L44.9083481,8.56195907 C45.0770954,8.35800067 45.4447812,8.08963435 45.9030407,8.08963435 C46.3311089,8.08963435 46.7467772,8.32311305 46.7467772,8.78953371 C46.7467772,8.94142905 46.7349164,8.99993291 46.6082211,9.5243207 C46.5413691,9.79859108 46.3613001,10.6391144 46.3370393,10.8833277 C46.2614566,10.8691922 46.1848047,10.8614713 46.1079096,10.8602482 C46.0167969,10.8602482 45.9149015,10.8720564 45.8421191,10.8833277 C45.9332319,10.6214022 46.2949873,9.28547467 46.2949873,8.88292519 C46.2949873,8.53297551 45.9990056,8.363368 45.6976326,8.363368 C45.4992332,8.363368 45.0048522,8.45675948 44.8247832,8.98758806 C44.6851488,9.39013754 44.438767,10.6965448 44.4085757,10.882791 C44.3481933,10.8715196 44.2694805,10.8597115 44.1853764,10.8597115 C44.1012723,10.8597115 44.0106987,10.8715196 43.9443859,10.882791 C44.1077419,10.3465951 44.4748886,8.5904059 44.5536014,8.11861791 C44.6139838,8.13042603 44.6856879,8.14169742 44.7708703,8.14169742 C44.8425744,8.14169742 44.9266785,8.13042603 44.9994609,8.11861791 L44.8851656,8.55015096 L44.8851656,8.55015096 Z M47.9533474,9.82220731 C47.8568433,9.78141563 47.5193487,9.64132841 47.5193487,9.16900369 C47.5193487,8.62099966 47.9781473,8.06709158 48.8402142,8.06709158 C49.0386136,8.06709158 49.1227177,8.09017108 49.2979345,8.13686682 C49.4062994,8.16585039 49.4785427,8.16585039 49.6046988,8.16585039 C49.7497244,8.16585039 50.0457061,8.14813821 50.2009752,8.14223415 C50.2009752,8.17712177 50.1896535,8.21791345 50.1896535,8.26514592 C50.1896535,8.31130493 50.2009752,8.35263334 50.2009752,8.38752097 C50.0104265,8.37544399 49.8197413,8.3656032 49.6289596,8.35800067 C49.6952724,8.43958403 49.7971678,8.57376719 49.7971678,8.83622945 C49.7971678,9.1625629 49.6224901,9.57155317 49.2186826,9.78678296 C48.9361791,9.9386783 48.5986845,9.94994968 48.4051373,9.94994968 C48.2719725,9.94994968 48.1452772,9.94458235 48.0557819,9.9386783 C47.9889299,9.97946998 47.8083218,10.0787655 47.8083218,10.2596444 C47.8083218,10.4931231 48.0617123,10.4990272 48.2547204,10.4990272 C48.9361791,10.5049312 49.1523698,10.5049312 49.3755691,10.6332103 C49.5987684,10.7614894 49.6408204,10.9949681 49.6408204,11.1404227 C49.6408204,11.5896679 49.2434825,12.4060382 48.0859731,12.4060382 C47.8018522,12.4060382 47.5252791,12.3598792 47.3252624,12.2015431 C47.1537687,12.0679715 47.0521137,11.8643814 47.0486893,11.647635 C47.0486893,11.3739014 47.2168975,11.1173432 47.4460272,10.9767192 C47.5786529,10.8951359 47.6929482,10.8543442 47.759261,10.8307279 L47.7657306,10.7899363 C47.6751569,10.7668568 47.4341664,10.6965448 47.4341664,10.4517947 C47.4341664,10.0900369 47.771661,9.94458235 47.9522691,9.86299899 L47.9522691,9.82220731 L47.9533474,9.82220731 Z M48.152825,12.2310634 C48.8757967,12.2310634 49.2316217,11.7351224 49.2316217,11.3213016 C49.2316217,10.866689 48.7372406,10.8489769 48.4116068,10.8489769 C48.2552595,10.8489769 47.9592778,10.860785 47.7484785,10.9949681 C47.5342358,11.1301798 47.4061601,11.366687 47.4104447,11.6191882 C47.4104447,12.0560886 47.767348,12.2310634 48.152825,12.2310634 L48.152825,12.2310634 Z M48.5388412,9.7808789 C49.1232568,9.7808789 49.3405257,9.14538745 49.3405257,8.78953371 C49.3405257,8.45139215 49.1351176,8.2350889 48.810023,8.2350889 C48.2008075,8.2350889 47.9835386,8.85930896 47.9835386,9.19798725 C47.9835386,9.64132841 48.2849116,9.7808789 48.5388412,9.7808789 L48.5388412,9.7808789 Z" id="Shape"></path>
      </g>
      <path d="M8.90979926,50.7067427 C8.30431235,50.7049741 7.81390959,50.2167509 7.81213309,49.613955 L7.81213309,49.4110701 C7.81213309,48.8099296 8.30651417,48.3182825 8.90979926,48.3182825 L66.7426813,48.3182825 C67.3470447,48.3182825 67.8408866,48.8099296 67.8408866,49.4110701 L67.8408866,49.613955 C67.8408866,50.2150956 67.3470447,50.7067427 66.7426813,50.7067427 L8.90979926,50.7067427 Z" id="Path" fill="#FFEF00"></path>
    </g>
  </g>
</svg>
